<?xml version="1.0" standalone="no"?><!DOCTYPE svg PUBLIC "-//W3C//DTD SVG 1.1//EN" "http://www.w3.org/Graphics/SVG/1.1/DTD/svg11.dtd"><svg t="1626139505694" class="icon" viewBox="0 0 1024 1024" version="1.1" xmlns="http://www.w3.org/2000/svg" p-id="9416" xmlns:xlink="http://www.w3.org/1999/xlink" width="64" height="64"><defs><style type="text/css"></style></defs><path d="M125.952 957.952c-30.208 0-54.272-24.064-54.272-54.272v-198.144c0-30.208 24.064-54.272 54.272-54.272 30.208 0 54.272 24.064 54.272 54.272v198.144c0 30.208-24.064 54.272-54.272 54.272zM384 957.952c-30.208 0-54.272-24.064-54.272-54.272V481.792c0-30.208 24.064-54.272 54.272-54.272 30.208 0 54.272 24.064 54.272 54.272v421.888c0 30.208-24.064 54.272-54.272 54.272z" fill="#1296db" p-id="9417" data-spm-anchor-id="a313x.7781069.0.i19" class="selected"></path><path d="M907.264 135.168c-5.12-2.048-10.24-3.072-15.872-2.048H768c-17.92 0-32.256 14.336-32.256 32.256s14.336 32.256 32.256 32.256h47.616L639.488 373.76 408.576 142.336c-6.656-6.656-15.872-10.24-25.088-9.728-9.216-0.512-17.92 3.072-24.576 9.728L104.96 395.776c-12.288 13.312-11.776 34.304 2.048 47.104 12.8 11.776 32.256 11.776 45.056 0l231.424-231.424L614.4 442.88c6.656 6.656 15.872 9.728 25.088 9.728 9.216 0.512 18.432-3.072 25.088-9.728l199.168-199.68v49.664c0 17.92 14.336 32.256 32.256 32.256s32.256-14.336 32.256-32.256v-128c-0.512-13.312-8.704-25.088-20.992-29.696zM128 676.864c-17.92 0-32.256 14.336-32.256 32.256V901.12c0 17.92 14.336 32.256 32.256 32.256s32.256-14.336 32.256-32.256v-192c-0.512-17.92-14.336-32.256-32.256-32.256z m256-223.744c-17.92 0-32.256 14.336-32.256 32.256V901.12c0 17.92 14.336 32.256 32.256 32.256s32.256-14.336 32.256-32.256V484.864c-0.512-17.408-14.336-31.744-32.256-31.744z m519.68 187.392h-2.048c-32.256 0-58.368-27.648-58.368-61.44 0-11.264 5.12-23.552 5.12-23.552 5.12-11.776 1.536-25.6-8.704-33.792l-0.512-0.512-55.808-32.768-0.512-0.512c-10.752-4.608-23.552-2.048-31.744 6.656-6.656 7.68-28.672 27.136-46.08 27.136-17.408 0-39.424-19.968-46.08-27.136-5.632-5.632-13.312-9.216-20.992-9.216-3.584 0-7.168 0.512-10.752 2.048l-0.512 0.512-57.856 33.792-0.512 0.512c-10.24 8.192-13.824 21.504-9.216 33.792 0 0 5.12 12.288 5.12 23.552 0 33.792-26.112 61.44-58.368 61.44h-2.048c-9.216 0-16.896 8.704-19.456 22.016 0 1.024-4.608 26.624-4.608 46.592s4.608 45.568 4.608 46.592c2.56 13.312 9.728 22.016 18.944 22.016h2.048c32.256 0 58.368 27.648 58.368 61.952 0 11.264-5.12 23.552-5.12 23.552-5.12 11.776-1.536 25.6 8.704 33.792l0.512 0.512 54.784 32.768 0.512 0.512c11.264 4.608 23.552 1.536 31.744-7.168 6.656-7.168 28.672-28.672 46.592-28.672s39.936 20.992 47.104 29.184c7.68 9.216 20.48 11.776 31.744 7.168h0.512l56.832-33.28 0.512-0.512c10.24-8.192 13.824-21.504 8.704-33.792 0 0-5.12-12.288-5.12-23.552 0-34.304 26.112-61.952 58.368-61.952h2.048c9.216 0 16.896-8.704 19.456-22.016 0-1.024 4.608-26.624 4.608-46.592s-4.608-45.568-4.608-46.592c-0.512-14.336-8.192-23.04-17.92-23.04z m-42.496 101.888c-36.352 2.048-65.024 33.792-65.024 73.216 0 12.8 4.608 25.6 5.632 28.16l-43.008 25.6c-0.512 0-1.024 0-1.536-0.512-5.12-5.632-10.24-10.752-15.872-14.848-13.312-10.752-26.112-15.872-37.888-15.872-11.776 0-24.576 5.632-37.888 15.872-9.216 7.168-15.36 13.824-15.872 14.848-0.512 0-1.024 0.512-1.536 0.512l-41.472-24.576c1.024-2.56 5.632-15.36 5.632-28.16 0-38.912-28.672-71.168-65.024-73.216-2.048-10.752-3.072-22.016-3.584-33.28 0-12.8 2.56-30.208 3.584-33.28 36.352-2.048 65.024-33.792 65.024-73.216 0-12.8-4.608-25.088-5.632-28.16l44.032-25.6c1.024 0 1.536 0 1.536 0.512 1.024 1.024 7.168 7.68 15.872 14.336 13.312 10.24 25.6 15.36 36.864 15.36s23.552-5.12 36.864-14.848c8.704-6.656 14.848-13.312 15.872-13.824 0.512 0 1.024-0.512 1.536-0.512l42.496 25.088c-1.024 2.56-5.632 14.848-5.632 28.16 0 38.912 28.672 71.168 65.024 73.216 0.512 3.072 3.584 20.48 3.584 33.28-0.512 11.264-3.072 28.672-3.584 31.744z m-157.184-97.792c-35.328 0.512-63.488 29.184-63.488 64.512 0 35.84 28.16 64.512 63.488 64.512 34.816 0 62.976-28.672 62.976-64.512 0.512-35.328-27.648-64-62.976-64.512z" fill="#1296db" p-id="9418"></path></svg>