<?xml version="1.0" standalone="no"?><!DOCTYPE svg PUBLIC "-//W3C//DTD SVG 1.1//EN" "http://www.w3.org/Graphics/SVG/1.1/DTD/svg11.dtd"><svg t="1626249452866" class="icon" viewBox="0 0 1024 1024" version="1.1" xmlns="http://www.w3.org/2000/svg" p-id="2429" xmlns:xlink="http://www.w3.org/1999/xlink" width="64" height="64"><defs><style type="text/css"></style></defs><path d="M656.64 307.91l-102-102a58.89 58.89 0 0 0-83.25 0L217.24 460a46.32 46.32 0 0 0-5 6.26 44.22 44.22 0 0 0-5.51 9.58 49.53 49.53 0 0 0-3.8 19c0 25.19 18.9 46.33 43 49 2.08 0.34 177.22 0.51 177.22 0.51h350.5a34.13 34.13 0 0 0 4-0.21 49.46 49.46 0 0 0 41.45-68.59 38.85 38.85 0 0 0-4.47-8 48.54 48.54 0 0 0-6.14-7.79l-70.91-70.92-22.48-22.46" fill="#BAD4FF" p-id="2430"></path><path d="M920.42 496.24a51.67 51.67 0 0 0-5.95-10.64 64.43 64.43 0 0 0-8.17-10.37L782 350.89l-0.1 0.11a13.68 13.68 0 1 0-19.32 19.32l124.27 124.35a39.27 39.27 0 0 1 4.46 5.76 32 32 0 0 1 3.79 6.57 38.34 38.34 0 0 1-32.16 53.13 28 28 0 0 1-3.06 0.17H830.4v290.82a38.35 38.35 0 0 1-38.32 38.3H612.86a38.35 38.35 0 0 1-38.31-38.3V560.28h-123.1v290.84a38.34 38.34 0 0 1-38.3 38.3H233.92a38.35 38.35 0 0 1-38.32-38.3V560.28H166a26 26 0 0 1-4.06-0.31 38.31 38.31 0 0 1-31.1-52.84 32.27 32.27 0 0 1 3.91-6.77 39.51 39.51 0 0 1 4.25-5.56l338-338a50.89 50.89 0 0 1 71.92 0L684.7 292.53a13.7 13.7 0 1 0 19.37-19.36l0.09-0.09-135.77-135.77a78.39 78.39 0 0 0-110.8 0l-338.2 338.2a61.44 61.44 0 0 0-6.64 8.32 59.36 59.36 0 0 0-7.33 12.77 65.62 65.62 0 0 0-5 25.27c0 33.53 25.14 61.66 57.18 65.23a51.26 51.26 0 0 0 8.45 0.67h2.09v263.34a65.9 65.9 0 0 0 65.83 65.82h179.18A65.88 65.88 0 0 0 479 851.11V587.79h68v263.32a65.89 65.89 0 0 0 65.83 65.82h179.25a65.9 65.9 0 0 0 65.83-65.82V587.79h2a48.93 48.93 0 0 0 5.38-0.27c33.86-2.87 60.37-31.7 60.37-65.63a66.3 66.3 0 0 0-5.24-25.65z" fill="#3585F9" p-id="2431"></path></svg>