<?xml version="1.0" standalone="no"?><!DOCTYPE svg PUBLIC "-//W3C//DTD SVG 1.1//EN" "http://www.w3.org/Graphics/SVG/1.1/DTD/svg11.dtd"><svg t="1626139686273" class="icon" viewBox="0 0 1024 1024" version="1.1" xmlns="http://www.w3.org/2000/svg" p-id="11404" xmlns:xlink="http://www.w3.org/1999/xlink" width="64" height="64"><defs><style type="text/css"></style></defs><path d="M914.58064531 666.83870938c0-21.67741969 12.38709656-40.25806406 30.96774188-46.45161282-9.29032219-32.51612906-27.8709675-63.48387094-51.09677438-86.70967687-17.03225813 10.83870938-40.25806406 13.93548375-58.83870937 4.64516062-18.58064531-12.38709656-27.8709675-30.96774187-26.32258125-51.09677344-15.48387094-3.09677437-32.51612906-6.19354875-49.54838625-6.19354875-18.58064531 0-34.06451625 3.09677437-51.09677438 6.19354875 3.09677437 18.58064531-7.74193594 40.25806406-24.77419406 52.64516063s-43.35483844 7.74193594-58.83870938-4.64516063c-23.22580687 21.67741969-41.80645125 52.64516156-51.09677437 85.16128969 18.58064531 6.19354875 30.96774187 24.77419313 30.96774187 46.45161281s-12.38709656 40.25806406-30.96774187 46.45161282c9.29032219 32.51612906 27.8709675 61.93548375 51.09677437 85.16129062 15.48387094-12.38709656 38.70967781-13.93548375 58.83870938-4.64516156 18.58064531 12.38709656 27.8709675 30.96774187 24.77419406 51.09677437 17.03225813 6.19354875 34.06451625 7.74193594 51.09677438 7.74193594 18.58064531 0 34.06451625-1.54838719 51.09677343-7.74193594-3.09677437-18.58064531 6.19354875-38.70967781 26.32258125-51.09677437 18.58064531-12.38709656 41.80645125-9.29032219 58.83870938 4.64516156 23.22580687-23.22580687 41.80645125-52.64516156 51.09677437-85.16129062-20.1290325-6.19354875-32.51612906-24.77419313-32.51612906-46.45161282z m-154.83870937 77.41935468c-44.90322562 0-78.96774188-35.61290344-78.96774282-77.41935469s34.06451625-75.8709675 78.96774282-75.8709675 78.96774188 34.06451625 78.96774187 75.87096751-34.06451625 77.41935469-78.96774187 77.41935468z m0-30.96774187c26.32258031 0 46.45161281-20.1290325 46.45161281-46.45161281s-20.1290325-46.45161281-46.45161281-46.45161282-46.45161281 20.1290325-46.45161375 46.45161282 20.1290325 46.45161281 46.45161375 46.45161281z" fill="#FFC13D" p-id="11405"></path><path d="M214.70967781 621.93548375C157.41935469 645.16129063 124.90322563 674.58064531 124.90322563 697.80645125c0 51.09677437 147.09677437 123.8709675 387.09677437 123.87096844 24.77419313 0 49.54838719-1.54838719 72.77419312-3.09677438-35.61290344-40.25806406-57.29032219-92.90322562-57.29032218-151.74193594h-15.48387094c-105.29032219 0-213.67741969-15.48387094-297.29032219-44.90322562z" fill="#D3EAFF" p-id="11406"></path><path d="M584.77419312 818.58064531c-23.22580687 1.54838719-49.54838719 3.09677437-72.77419312 3.09677438-240 0-387.09677437-72.77419312-387.09677437-123.87096844 0-23.22580687 32.51612906-52.64516156 89.80645218-75.8709675C298.32258031 651.35483844 406.70967781 666.83870938 512 666.83870938h15.48387094c0-21.67741969 3.09677437-41.80645125 9.29032219-61.93548375H512c-68.1290325 0-128.51612906-6.19354875-181.16129062-15.48387094-24.77419313-4.64516156-48-9.29032219-68.12903157-15.48387094-18.58064531-4.64516156-34.06451625-10.83870938-49.54838719-17.03225812C157.41935469 533.67741969 124.90322563 504.25806406 124.90322563 481.03225813c0-18.58064531 18.58064531-38.70967781 54.19354874-58.83870938C265.80645125 460.90322563 391.22580688 481.03225813 512 481.03225813c38.70967781 0 78.96774188-1.54838719 117.67741969-6.19354875C666.83870938 450.06451625 711.74193594 434.58064531 759.74193594 434.58064531c13.93548375 0 29.41935469 1.54838719 43.35483843 4.64516157 15.48387094-4.64516156 29.41935469-10.83870938 43.35483844-17.03225813 34.06451625 20.1290325 54.19354875 40.25806406 54.19354875 58.83870938 18.58064531 13.93548375 34.06451625 29.41935469 48 48 9.29032219-15.48387094 13.93548375-30.96774187 13.93548375-49.54838719 0-35.61290344-20.1290325-66.58064531-55.74193594-92.90322563 34.06451625-26.32258031 55.74193594-57.29032219 55.74193594-92.90322562C961.03225812 174.45161281 728.77419313 109.41935469 512 109.41935469S62.96774188 174.45161281 62.96774188 295.22580687c0 35.61290344 20.1290325 66.58064531 55.74193593 92.90322563C83.09677437 414.45161281 62.96774188 445.41935469 62.96774188 481.03225813c0 43.35483844 29.41935469 80.51612906 78.96774187 108.38709656C92.38709656 617.29032219 62.96774188 654.45161281 62.96774188 697.80645125c0 120.77419312 230.70967781 185.80645125 449.03225812 185.80645219 48 0 96-3.09677437 144-9.29032313-27.8709675-13.93548375-51.09677437-32.51612906-71.22580688-55.741935zM512 171.35483844c240 0 387.09677437 72.77419312 387.09677437 123.87096843 0 18.58064531-18.58064531 38.70967781-54.19354874 58.83870938-21.67741969 12.38709656-51.09677437 24.77419313-86.70967688 34.06451625-63.48387094 18.58064531-147.09677437 30.96774187-247.74193594 30.96774187s-182.70967781-12.38709656-247.741935-30.96774187c-35.61290344-9.29032219-63.48387094-21.67741969-86.70967781-34.06451625C143.48387094 333.93548375 124.90322563 313.80645125 124.90322563 295.22580687c0-51.09677437 147.09677437-123.8709675 387.09677437-123.87096843z" fill="#1890FF" p-id="11407"></path></svg>