<?xml version="1.0" standalone="no"?><!DOCTYPE svg PUBLIC "-//W3C//DTD SVG 1.1//EN" "http://www.w3.org/Graphics/SVG/1.1/DTD/svg11.dtd"><svg t="1629026339297" class="icon" viewBox="0 0 1024 1024" version="1.1" xmlns="http://www.w3.org/2000/svg" p-id="1729" xmlns:xlink="http://www.w3.org/1999/xlink" width="64" height="64"><defs><style type="text/css"></style></defs><path d="M119.467 494.933c-5.12 0-8.534-1.706-11.947-5.12-6.827-6.826-6.827-17.066 0-23.893l238.933-238.933c6.827-6.827 17.067-6.827 23.894 0L512 368.64l226.987-226.987c6.826-6.826 17.066-6.826 23.893 0s6.827 17.067 0 23.894L523.947 404.48c-6.827 6.827-17.067 6.827-23.894 0L358.4 262.827 131.413 489.813c-3.413 3.414-6.826 5.12-11.946 5.12zM682.667 409.6h153.6v477.867h-153.6V409.6z" fill="#1296db" p-id="1730"></path><path d="M836.267 904.533h-153.6c-10.24 0-17.067-6.826-17.067-17.066V409.6c0-10.24 6.827-17.067 17.067-17.067h153.6c10.24 0 17.066 6.827 17.066 17.067v477.867c0 10.24-6.826 17.066-17.066 17.066zM699.733 870.4H819.2V426.667H699.733V870.4zM426.667 563.2h153.6v324.267h-153.6V563.2z" fill="#1296db" p-id="1731"></path><path d="M580.267 904.533h-153.6c-10.24 0-17.067-6.826-17.067-17.066V563.2c0-10.24 6.827-17.067 17.067-17.067h153.6c10.24 0 17.066 6.827 17.066 17.067v324.267c0 10.24-6.826 17.066-17.066 17.066zM443.733 870.4H563.2V580.267H443.733V870.4z m-119.466 34.133H187.733c-10.24 0-17.066-6.826-17.066-17.066V648.533c0-10.24 6.826-17.066 17.066-17.066h136.534c10.24 0 17.066 6.826 17.066 17.066v238.934c0 10.24-6.826 17.066-17.066 17.066zM204.8 870.4h102.4V665.6H204.8v204.8zM119.467 431.787c25.6 0 46.08 20.48 46.08 46.08 0 25.6-20.48 46.08-46.08 46.08s-46.08-20.48-46.08-46.08c0-25.6 20.48-46.08 46.08-46.08z" fill="#1296db" p-id="1732"></path><path d="M119.467 541.013c-34.134 0-63.147-27.306-63.147-63.146s29.013-63.147 63.147-63.147 63.146 27.307 63.146 63.147-29.013 63.146-63.146 63.146z m0-92.16c-15.36 0-29.014 11.947-29.014 29.014s11.947 29.013 29.014 29.013 29.013-11.947 29.013-29.013-13.653-29.014-29.013-29.014zM358.4 192.853c25.6 0 46.08 20.48 46.08 46.08 0 25.6-20.48 46.08-46.08 46.08-25.6 0-46.08-20.48-46.08-46.08 0-25.6 20.48-46.08 46.08-46.08z" fill="#1296db" p-id="1733"></path><path d="M358.4 302.08c-34.133 0-63.147-27.307-63.147-63.147s27.307-63.146 63.147-63.146 63.147 27.306 63.147 63.146-29.014 63.147-63.147 63.147z m0-92.16c-15.36 0-29.013 11.947-29.013 29.013s11.946 29.014 29.013 29.014 29.013-11.947 29.013-29.014S373.76 209.92 358.4 209.92zM512 346.453c25.6 0 46.08 20.48 46.08 46.08 0 25.6-20.48 46.08-46.08 46.08s-46.08-20.48-46.08-46.08c0-25.6 20.48-46.08 46.08-46.08z" fill="#1296db" p-id="1734"></path><path d="M512 455.68c-34.133 0-63.147-27.307-63.147-63.147S476.16 329.387 512 329.387c34.133 0 63.147 27.306 63.147 63.146S546.133 455.68 512 455.68z m0-92.16c-15.36 0-29.013 11.947-29.013 29.013s11.946 29.014 29.013 29.014 29.013-11.947 29.013-29.014S527.36 363.52 512 363.52zM768 90.453c25.6 0 46.08 20.48 46.08 46.08s-20.48 46.08-46.08 46.08-46.08-20.48-46.08-46.08 20.48-46.08 46.08-46.08z" fill="#1296db" p-id="1735"></path><path d="M768 199.68c-34.133 0-63.147-27.307-63.147-63.147S733.867 73.387 768 73.387s63.147 29.013 63.147 63.146S802.133 199.68 768 199.68z m0-92.16c-15.36 0-29.013 11.947-29.013 29.013s11.946 29.014 29.013 29.014 29.013-11.947 29.013-29.014S783.36 107.52 768 107.52z" fill="#1296db" p-id="1736"></path></svg>